<svg width="48" height="46" viewBox="0 0 48 46" fill="none" xmlns="http://www.w3.org/2000/svg">
<path d="M0 14.04C0 8.19044 0 5.26563 1.50118 3.21528C1.98599 2.5531 2.57282 1.97077 3.24012 1.48967C5.30632 0 8.25372 0 14.1485 0H25.1528C31.0476 0 33.995 0 36.0612 1.48967C36.7285 1.97077 37.3153 2.5531 37.8001 3.21528C39.3013 5.26563 39.3013 8.19044 39.3013 14.04V24.96C39.3013 30.8096 39.3013 33.7344 37.8001 35.7847C37.3153 36.4469 36.7285 37.0292 36.0612 37.5103C33.995 39 31.0476 39 25.1528 39H14.1485C8.25372 39 5.30632 39 3.24012 37.5103C2.57282 37.0292 1.98599 36.4469 1.50118 35.7847C0 33.7344 0 30.8096 0 24.96V14.04Z" fill="white"/>
<path fill-rule="evenodd" clip-rule="evenodd" d="M15.553 11.3252C16.6765 11.3252 17.5873 12.229 17.5873 13.3439V15.4202H15.4949C14.3714 15.4202 13.4606 14.5164 13.4606 13.4016V11.3252H15.553ZM19.6215 15.4202C18.498 15.4202 17.5873 16.324 17.5873 17.4388V19.5152H19.6797C20.8031 19.5152 21.7139 18.6114 21.7139 17.4966V15.4202H23.8063C24.9298 15.4202 25.8405 14.5164 25.8405 13.4016V11.3252H23.7481C22.6247 11.3252 21.7139 12.229 21.7139 13.3439V15.4202H19.6215ZM19.6797 23.6102C20.8031 23.6102 21.7139 24.514 21.7139 25.6289V27.7052H19.6215C18.498 27.7052 17.5873 26.8014 17.5873 25.6866V23.6102H19.6797ZM17.5873 21.5339C17.5873 20.419 16.6765 19.5152 15.553 19.5152H13.4606V17.4388C13.4606 16.324 12.5499 15.4202 11.4264 15.4202H9.33398V17.4966C9.33398 18.6114 10.2447 19.5152 11.3682 19.5152H13.4606V21.5916C13.4606 22.7064 14.3714 23.6102 15.4949 23.6102H17.5873V21.5339ZM23.7481 19.5152C22.6247 19.5152 21.7139 20.419 21.7139 21.5339V23.6102H23.8063C24.9298 23.6102 25.8405 22.7064 25.8405 21.5916V19.5152H27.9329C29.0564 19.5152 29.9672 18.6114 29.9672 17.4966V15.4202H27.8748C26.7513 15.4202 25.8405 16.324 25.8405 17.4388V19.5152H23.7481Z" fill="black"/>
<rect x="22" y="20" width="26" height="26" rx="12" fill="black"/>
<path d="M39.9706 30.3368L39.991 30.3276C40.0517 30.2998 40.0963 30.2846 40.1313 30.2798L40.1699 30.2728C40.2489 30.2554 40.3304 30.2467 40.412 30.2467C40.9025 30.2467 41.3121 30.0829 41.5966 29.7732C41.8012 29.5502 41.93 29.2608 41.975 28.9257L42 28.9261V27H39.0041V28.3935C38.9969 28.4939 38.9975 28.5863 38.9981 28.6681C38.9987 28.7579 38.9992 28.8428 38.9891 28.9071L38.9863 28.9276C38.9524 29.1998 38.8297 29.4525 38.6407 29.6392C38.4471 29.8304 38.3565 29.8724 38.3267 29.8815C38.2966 29.8907 38.253 29.8864 38.1269 29.8681C38.0182 29.8524 37.8692 29.8309 37.6874 29.8309C36.911 29.8309 36.2603 30.4589 36.1737 31.2924C36.1544 31.4819 36.1653 31.6236 36.1732 31.7269C36.1821 31.8419 36.1847 31.8765 36.1476 31.9909C36.074 32.2158 35.9172 32.4245 35.7063 32.5783C35.4953 32.7322 35.2524 32.817 35.0226 32.817L35.0002 32.8167L34.9777 32.817C34.7479 32.817 34.5051 32.7324 34.2941 32.5783C34.083 32.4245 33.9262 32.2158 33.8529 31.9915C33.8156 31.8765 33.8181 31.8417 33.8271 31.7266C33.835 31.6233 33.8459 31.4817 33.8267 31.2917C33.7402 30.4588 33.0895 29.8307 32.3131 29.8307C32.1313 29.8307 31.9823 29.8523 31.8728 29.8681C31.7476 29.8862 31.7039 29.8905 31.6738 29.8813C31.644 29.8721 31.5534 29.8302 31.3598 29.6388C31.1708 29.4524 31.0482 29.1996 31.0142 28.9275L31.0114 28.907C31.0065 28.8757 31.0041 28.8397 31.003 28.8006V27H28.0065V28.6326C28.003 29.0924 28.1403 29.4868 28.4033 29.7734C28.6876 30.0831 29.0972 30.2467 29.5877 30.2467C29.6692 30.2467 29.7506 30.2556 29.83 30.273L29.8684 30.2798C29.9033 30.2848 29.9479 30.3 30.009 30.3278L30.0291 30.3368C30.2321 30.4236 30.4101 30.5689 30.5436 30.7572C30.8723 31.2203 30.8733 31.8683 30.5461 32.3328C30.439 32.4851 30.2996 32.6121 30.1433 32.7004L30.1293 32.7086C30.0864 32.7339 30.0482 32.7526 30.0131 32.7658C29.9975 32.7716 29.9834 32.7764 29.9703 32.7805L29.9554 32.7853C29.8372 32.8263 29.7135 32.8469 29.5879 32.8469C28.6381 32.8469 28 33.478 28 34.4173C28 35.1505 28.3094 35.531 28.5689 35.721C28.8856 35.9529 29.2675 36.0186 29.6332 36.0548L29.6585 36.0579C29.7555 36.0716 29.8374 36.0931 29.9314 36.1296L29.9768 36.1483L29.9845 36.1513C30.2307 36.2422 30.437 36.4278 30.5654 36.6741C30.638 36.8133 30.6882 36.9955 30.7069 37.1869C30.7141 37.2622 30.719 37.3351 30.7238 37.4072C30.7274 37.462 30.7315 37.5235 30.737 37.5853V38.9995H33.7329V37.1111L33.7118 37.1108C33.6624 36.7476 33.5028 36.415 33.2503 36.1566C33.228 36.1341 33.2075 36.115 33.1911 36.0997L33.1809 36.0904C32.8586 35.7885 32.4393 35.7805 32.1331 35.7744H32.1297C32.0785 35.7734 32.03 35.7724 31.9872 35.7702L31.9412 35.7625L31.8428 35.7388L31.75 35.7079L31.65 35.6649C31.5452 35.6135 31.4474 35.5465 31.3606 35.4668L31.3412 35.4487C31.064 35.1809 30.9265 34.8509 30.9208 34.4399C30.9216 34.1462 31.0085 33.8678 31.1723 33.6348C31.3319 33.4077 31.558 33.2386 31.8089 33.1587C32.0631 33.0779 32.537 33.0759 32.7655 33.1548C33.1819 33.2984 33.4774 33.7113 33.5006 34.1822C33.5025 34.2211 33.5011 34.2619 33.4995 34.3097C33.4948 34.4479 33.4883 34.6371 33.5621 34.8763C33.7709 35.5419 34.3483 35.9908 35.0006 35.9935C35.6513 35.9908 36.2285 35.5417 36.4377 34.8751C36.5112 34.6373 36.5047 34.4481 36.5 34.3093C36.4984 34.2619 36.497 34.2211 36.4989 34.1824C36.5221 33.7115 36.8177 33.2984 37.234 33.1549C37.4626 33.0761 37.9363 33.0781 38.1904 33.1589C38.4416 33.239 38.6678 33.408 38.8273 33.6351C38.991 33.8682 39.0779 34.1465 39.0787 34.4402C39.073 34.8512 38.9355 35.1813 38.6582 35.4492L38.6405 35.4658C38.5523 35.5467 38.4543 35.6138 38.3495 35.6652L38.2497 35.7082L38.1569 35.7391L38.0763 35.7593L38.0125 35.7706C37.9698 35.7727 37.9212 35.7738 37.8699 35.7748H37.8666C37.5604 35.7808 37.1411 35.7888 36.8196 36.09L36.8085 36.1005C36.7921 36.1156 36.7717 36.1346 36.7489 36.1576C36.5057 36.4064 36.3486 36.7255 36.2938 37.0744H36.2669V39H39.2628V37.5858C39.2683 37.5242 39.2724 37.4625 39.2761 37.4077C39.2808 37.3368 39.2857 37.2636 39.293 37.1878C39.3116 36.996 39.3619 36.8138 39.4344 36.6747C39.5629 36.4285 39.7691 36.2429 40.0154 36.1518L40.0684 36.1302C40.1625 36.0938 40.2443 36.0723 40.3415 36.0584L40.3666 36.0554C40.7323 36.0192 41.1143 35.9534 41.431 35.7215C41.9012 35.3773 41.9999 34.8225 41.9999 34.4178C41.9999 33.4785 41.3617 32.8474 40.412 32.8474C40.2864 32.8474 40.1626 32.8266 40.0444 32.7858L40.0296 32.781C40.0164 32.7769 40.0024 32.7721 39.9877 32.7667C39.9517 32.7533 39.9134 32.7344 39.8696 32.7086L39.8565 32.7009C39.7002 32.6126 39.5608 32.4856 39.4536 32.3333C39.1264 31.8689 39.1274 31.2208 39.4561 30.7578C39.5896 30.5696 39.7676 30.4234 39.9706 30.3368Z" fill="#F2BB15"/>
</svg>
